<svg xmlns="http://www.w3.org/2000/svg" xmlns:xlink="http://www.w3.org/1999/xlink" width="500" zoomAndPan="magnify" viewBox="0 0 375 374.999991" height="500" preserveAspectRatio="xMidYMid meet" version="1.0"><path fill="#5383f0" d="M 43.269531 227.59375 C 43.980469 229.757812 43.582031 229.585938 42.015625 230.75 C 26.933594 241.957031 34.472656 262.117188 50.746094 262.382812 C 54.371094 262.441406 57.320312 260.636719 56.320312 266.167969 C 55.808594 269.023438 55.824219 272.503906 55.988281 275.40625 C 57.226562 296.230469 72.175781 314.496094 91.144531 322.230469 C 112.601562 330.984375 136.96875 326.269531 156.144531 314.230469 C 168.367188 306.558594 180.160156 295.160156 184.402344 280.902344 C 185.203125 278.195312 185.902344 275.109375 186.085938 272.285156 C 186.171875 270.988281 185.992188 269.253906 187.277344 268.4375 C 188.707031 267.527344 189.820312 268.328125 190.65625 269.457031 C 200.8125 283.199219 222.277344 281.371094 228.488281 264.175781 C 230.625 258.273438 228.460938 252.1875 232.84375 253.386719 C 234.171875 253.753906 234.222656 255.183594 235.226562 256.042969 C 252.191406 270.445312 275.535156 277.328125 297.140625 270.257812 C 317.8125 263.496094 330.480469 249.347656 338.242188 229.425781 C 342.027344 219.714844 345.792969 206.027344 338.921875 196.832031 C 333.851562 190.042969 330.632812 191.660156 329.886719 190.339844 C 329.453125 189.574219 329.921875 187.644531 330.78125 187.066406 C 332.070312 186.214844 337.652344 187.429688 340.035156 187.074219 C 352.199219 185.289062 363.90625 171.933594 359.609375 157.292969 C 358.1875 152.464844 355.195312 148.179688 351.417969 144.886719 C 339.722656 134.703125 331.519531 139.535156 329.828125 135.75 C 328.832031 133.523438 332.882812 131.515625 334.335938 130.679688 C 337.882812 128.636719 342.027344 123.816406 344.355469 120.445312 C 350.863281 111.003906 353.214844 99.21875 350.738281 88.007812 C 346.058594 66.894531 326.847656 52.207031 305.523438 51.265625 C 294.335938 50.769531 282.449219 53.542969 272.972656 59.628906 C 268.625 62.425781 265.410156 65.371094 262.210938 69.425781 C 260.050781 72.148438 259.402344 72.261719 258.6875 75.859375 C 258.21875 78.242188 257.558594 80.71875 254.578125 79.015625 C 252.5625 77.859375 249.890625 74.046875 242.53125 70.066406 C 232.53125 64.648438 220.660156 63.976562 211.542969 71.570312 C 209.5 73.273438 208.25 74.949219 206.769531 77.125 C 204.234375 80.835938 204.769531 91.097656 198.421875 84.851562 C 192.679688 79.195312 186.886719 75.886719 178.804688 73.734375 C 156.550781 67.800781 135.078125 77.425781 122.742188 96.351562 C 117.859375 103.839844 112.457031 117.707031 112.066406 126.5625 C 112 128.058594 112.277344 133.65625 109.871094 133.480469 C 108.101562 133.351562 105.695312 130.125 104.070312 129.054688 C 99.449219 126.027344 93.402344 124.511719 87.972656 125.90625 C 82.921875 127.207031 79.03125 130.859375 77.128906 135.675781 C 74.039062 143.484375 77.636719 145.074219 77.953125 151.878906 C 74.933594 153.617188 60.292969 146.0625 39.566406 153.921875 C 8.039062 165.859375 0.230469 205.175781 26.601562 221.914062 C 29.011719 223.445312 31.597656 224.589844 34.292969 225.527344 C 39.492188 227.332031 39.71875 226.734375 43.269531 227.59375 Z M 43.269531 227.59375 " fill-opacity="1" fill-rule="evenodd"/><path fill="#153a63" d="M 43.269531 227.59375 C 39.71875 226.734375 39.492188 227.332031 34.292969 225.527344 C 31.597656 224.589844 29.011719 223.445312 26.601562 221.914062 C 0.230469 205.175781 8.039062 165.859375 39.566406 153.914062 C 60.292969 146.0625 74.933594 153.617188 77.953125 151.878906 C 77.636719 145.074219 74.039062 143.484375 77.128906 135.675781 C 79.03125 130.859375 82.921875 127.207031 87.972656 125.90625 C 93.402344 124.503906 99.449219 126.027344 104.070312 129.054688 C 105.695312 130.125 108.101562 133.351562 109.871094 133.480469 C 112.277344 133.65625 112 128.058594 112.066406 126.5625 C 112.457031 117.707031 117.859375 103.839844 122.742188 96.351562 C 135.078125 77.425781 156.550781 67.800781 178.804688 73.734375 C 186.886719 75.886719 192.679688 79.195312 198.421875 84.851562 C 204.769531 91.097656 204.234375 80.835938 206.769531 77.125 C 208.25 74.949219 209.5 73.273438 211.542969 71.570312 C 220.660156 63.976562 232.53125 64.648438 242.53125 70.066406 C 249.890625 74.046875 252.5625 77.859375 254.578125 79.015625 C 257.558594 80.71875 258.21875 78.242188 258.6875 75.851562 C 259.402344 72.261719 260.050781 72.148438 262.210938 69.425781 C 265.410156 65.371094 268.625 62.417969 272.972656 59.621094 C 282.449219 53.542969 294.335938 50.769531 305.523438 51.257812 C 326.847656 52.207031 346.058594 66.894531 350.738281 88.007812 C 353.214844 99.21875 350.863281 111.003906 344.355469 120.445312 C 342.027344 123.816406 337.882812 128.636719 334.335938 130.679688 C 332.882812 131.515625 328.832031 133.523438 329.828125 135.75 C 331.519531 139.535156 339.722656 134.703125 351.417969 144.886719 C 355.195312 148.179688 358.1875 152.464844 359.609375 157.292969 C 363.90625 171.933594 352.199219 185.289062 340.035156 187.074219 C 337.652344 187.429688 332.070312 186.207031 330.78125 187.066406 C 329.921875 187.644531 329.453125 189.574219 329.886719 190.339844 C 330.632812 191.660156 333.851562 190.042969 338.921875 196.832031 C 345.792969 206.027344 342.027344 219.714844 338.242188 229.425781 C 330.480469 249.347656 317.8125 263.496094 297.140625 270.257812 C 275.535156 277.328125 252.191406 270.445312 235.226562 256.042969 C 234.222656 255.183594 234.171875 253.753906 232.84375 253.386719 C 228.460938 252.1875 230.625 258.273438 228.488281 264.175781 C 222.277344 281.371094 200.8125 283.199219 190.65625 269.457031 C 189.820312 268.328125 188.707031 267.527344 187.277344 268.4375 C 185.992188 269.253906 186.171875 270.988281 186.085938 272.285156 C 185.902344 275.109375 185.203125 278.195312 184.402344 280.902344 C 180.160156 295.160156 168.367188 306.558594 156.148438 314.230469 C 136.96875 326.269531 112.601562 330.984375 91.144531 322.230469 C 72.175781 314.496094 57.226562 296.230469 55.988281 275.40625 C 55.824219 272.503906 55.808594 269.023438 56.320312 266.167969 C 57.320312 260.636719 54.371094 262.441406 50.746094 262.382812 C 34.472656 262.117188 26.933594 241.957031 42.015625 230.75 C 43.582031 229.585938 43.980469 229.757812 43.269531 227.59375 Z M 63.746094 203.390625 C 65.980469 203.988281 64.902344 198.441406 70.472656 193.363281 C 72.328125 191.675781 73 191.277344 72.761719 190.085938 C 69.539062 188.15625 62.238281 200.066406 63.746094 203.390625 Z M 67.589844 216.101562 C 70.21875 216.460938 66.621094 213.148438 72.421875 202.847656 C 72.941406 201.921875 74.832031 199.597656 73.707031 198.949219 C 71.902344 197.902344 68.996094 204.121094 68.507812 205.476562 C 67.71875 207.664062 66.542969 214.144531 67.589844 216.101562 Z M 239.792969 248.734375 C 235.769531 250.183594 250.878906 262.492188 265.742188 265.488281 C 276.109375 267.585938 293.710938 267.027344 302.375 260.160156 C 303.851562 258.988281 303.292969 257.328125 301.582031 257.351562 C 297.652344 257.378906 288.539062 265.527344 269.507812 262.746094 C 260.832031 261.472656 252.972656 258.203125 245.894531 253.175781 C 245.042969 252.570312 240.398438 248.515625 239.792969 248.734375 Z M 65.480469 287.253906 C 62.765625 288.949219 73.867188 302.007812 75.699219 303.742188 C 87.070312 314.511719 100.308594 319.820312 116.082031 319.667969 C 122.257812 319.601562 133.855469 318.113281 138.878906 314.300781 C 140.675781 312.9375 139.664062 311.007812 136.730469 311.886719 C 131.265625 313.542969 125.542969 315.527344 119.9375 316.214844 C 112.109375 317.175781 102.785156 315.765625 95.425781 312.914062 C 83.710938 308.386719 75.613281 300.460938 68.527344 290.558594 C 67.980469 289.792969 66.457031 286.628906 65.480469 287.253906 Z M 170.671875 170.257812 L 170.375 170.324219 C 165.421875 166.15625 160.320312 162.90625 153.886719 161.46875 C 147.585938 160.070312 138.003906 161.214844 132.210938 164.121094 C 122.4375 169.039062 118.386719 179.339844 119.792969 189.789062 C 120.34375 193.855469 121.441406 196.074219 122.617188 199.777344 C 115.539062 194.3125 110.167969 190.382812 100.785156 189.695312 C 91.179688 188.996094 84.835938 191.804688 78.980469 199.359375 C 68.425781 212.96875 71.214844 235.691406 78.511719 250.164062 C 81.867188 256.835938 86.9375 263.230469 93.144531 267.460938 C 99.960938 272.105469 109.8125 274.953125 118.023438 273.832031 C 126.394531 272.699219 132.910156 268.53125 138.132812 262.03125 C 144.113281 254.605469 145.550781 246.472656 144.460938 237.191406 C 151.820312 240.414062 154.210938 242.96875 163.082031 242.8125 C 175.964844 242.59375 186.445312 233.617188 189.441406 220.855469 C 192.007812 209.90625 188.375 203.441406 188.382812 199.699219 C 188.433594 200.039062 196.382812 214.757812 197.316406 216.550781 C 200.6875 223.070312 198.957031 221.085938 201.578125 221.628906 C 202.304688 221.777344 203.261719 222.210938 204.027344 222.414062 C 208.605469 223.628906 218.09375 217.226562 221.632812 214.359375 C 223.203125 213.097656 224.53125 212.648438 223.519531 210.460938 C 222.839844 208.988281 222.066406 207.550781 221.339844 206.105469 C 218.535156 200.515625 214.214844 194.960938 211.488281 189.472656 C 213.207031 187.875 215.394531 188.332031 220.355469 181.160156 C 223.160156 177.113281 224.4375 173.574219 225.261719 168.726562 C 228.035156 170.222656 228.734375 170.707031 231.96875 171.335938 C 234.742188 171.882812 237.488281 172.230469 240.289062 172.542969 C 242.535156 172.789062 246.019531 173.234375 247.757812 174.664062 C 249.992188 176.484375 250.84375 178.96875 249.464844 181.597656 C 247.304688 181.691406 244.5 182.414062 242.152344 181.765625 C 240.679688 181.359375 241.683594 181.238281 240.484375 180.683594 C 239.222656 181.007812 240.03125 181.160156 238.839844 181.546875 L 232.417969 183.167969 C 231.074219 183.578125 229.765625 184.03125 228.429688 184.460938 C 226.839844 184.964844 225.636719 184.894531 225.410156 186.707031 C 224.53125 193.890625 229.058594 197.914062 231.625 201.597656 C 237.964844 210.707031 255.074219 210.121094 264.066406 206.011719 C 284.296875 196.765625 284.046875 169.285156 254.75 158.617188 C 249.933594 156.863281 243.460938 155.4375 239.105469 153.171875 C 230.496094 148.679688 232.207031 142.078125 235.507812 140.53125 C 236.867188 139.894531 238.65625 140.226562 240.101562 140.457031 C 241.894531 140.742188 241.070312 142.511719 241.765625 143.714844 C 241.886719 143.933594 244.582031 145.507812 245.035156 145.722656 C 248.183594 147.242188 252.863281 144.035156 256.492188 142.402344 C 260.945312 140.386719 250.308594 125.617188 246.480469 123.167969 C 241.945312 120.273438 235.625 117.910156 230.1875 118.183594 C 219.199219 118.734375 207.96875 128.136719 210.042969 139.953125 C 208.332031 139.375 206.097656 137.96875 204.019531 137.230469 C 198.898438 135.410156 193.359375 134.96875 187.984375 135.726562 C 186.5625 135.929688 185.765625 136.378906 184.351562 136.609375 C 178.449219 137.5625 173.410156 139.699219 168.535156 143.152344 C 166.1875 144.820312 160.464844 150.027344 159.960938 152.78125 Z M 198.175781 126.742188 C 199.859375 127.472656 199.828125 125.949219 200.5 124.605469 C 201.101562 123.398438 201.707031 122.625 202.507812 121.601562 C 204.878906 118.53125 207.824219 117.730469 206.511719 116.398438 C 204.582031 114.4375 197.222656 123.535156 198.175781 126.742188 Z M 204.546875 133.691406 C 205.46875 133.445312 205.382812 132.867188 205.976562 130.339844 C 206.378906 128.648438 206.769531 124.425781 208.777344 123.601562 C 209.609375 123.261719 210.0625 123.578125 210.5625 123.089844 C 212.214844 121.464844 206.515625 118.546875 204.921875 125.015625 C 204.507812 126.699219 203.679688 132.535156 204.546875 133.691406 Z M 288.726562 95.925781 C 287.554688 96.496094 288.832031 98.617188 289.171875 99.570312 C 289.742188 101.175781 292.742188 110.425781 294.488281 109.292969 C 296.011719 108.304688 291.875 100.316406 290.941406 98.554688 C 290.402344 97.503906 289.917969 95.351562 288.726562 95.925781 Z M 151.277344 245.015625 C 151.15625 246.113281 151.402344 246.261719 154.050781 247.261719 C 164.75 251.246094 170.664062 243.742188 164.335938 245.246094 C 161.375 245.945312 158.300781 246.378906 155.292969 245.773438 C 154.109375 245.542969 152.21875 244.488281 151.277344 245.015625 Z M 155.148438 251.644531 C 154.304688 253.730469 156.679688 253.421875 158.300781 253.507812 C 160.277344 253.609375 162.125 253.542969 164.089844 253.320312 C 165.722656 253.132812 167.328125 252.792969 168.886719 252.324219 C 170.417969 251.859375 172.707031 251.566406 171.972656 249.695312 C 170.867188 249.269531 164.367188 251.332031 159.824219 251.527344 C 158.472656 251.578125 156.328125 251.347656 155.148438 251.644531 Z M 294.851562 96.328125 C 294.65625 98.027344 298.734375 107.402344 299.820312 110.03125 C 300.085938 110.707031 301.429688 114.882812 302.644531 112.925781 C 303.199219 112.03125 300.121094 105.132812 299.574219 103.746094 C 298.980469 102.25 298.351562 100.777344 297.761719 99.273438 C 297.167969 97.773438 296.765625 95.316406 294.851562 96.328125 Z M 281.871094 189.101562 C 280.144531 189.769531 280.390625 195.25 274.402344 200.523438 C 274.019531 200.855469 272.980469 201.585938 272.820312 201.972656 C 271.847656 204.25 275.53125 204.277344 280.644531 197.472656 C 283.714844 193.394531 283.878906 188.335938 281.871094 189.101562 Z M 281.4375 201.535156 C 283.8125 202.863281 287.0625 196.707031 287.960938 194.96875 C 292.386719 186.386719 287.9375 181.101562 287.070312 185.28125 C 286.871094 186.234375 286.789062 187.253906 286.71875 188.214844 C 286.566406 190.195312 286.390625 191.609375 285.683594 193.457031 C 283.589844 198.949219 280.339844 199.613281 281.4375 201.535156 Z M 81.761719 134.859375 C 83.609375 135.625 86.339844 131.054688 93.460938 133.4375 C 98.242188 135.042969 99.167969 137.785156 100.375 138.066406 C 101.363281 138.292969 102.1875 137.164062 101.847656 136.140625 C 100.375 131.71875 90.910156 127.464844 83.296875 132.566406 C 82.28125 133.25 81.457031 133.632812 81.761719 134.859375 Z M 329.921875 182.175781 C 331.613281 183.910156 338.136719 182.941406 340.390625 182.328125 C 356.648438 177.910156 359.890625 159.351562 354.574219 161.296875 C 353.613281 161.648438 353.648438 162.265625 353.441406 163.210938 C 351.777344 170.722656 346.527344 177.4375 338.953125 179.632812 C 332.964844 181.367188 329.128906 178.695312 329.921875 182.175781 Z M 145.183594 81.636719 C 136.746094 84.996094 127.304688 96.207031 123.839844 105.5 C 123.304688 106.929688 119.792969 117.460938 123.703125 116.421875 C 125.125 116.039062 126.679688 108.707031 127.914062 105.550781 C 129.363281 101.847656 130.882812 98.972656 133.230469 95.785156 C 135.15625 93.164062 138.019531 90.039062 140.464844 87.957031 C 141.832031 86.800781 143.277344 85.667969 144.71875 84.65625 C 145.261719 84.273438 146.578125 83.53125 146.800781 82.964844 C 147.234375 81.875 146.292969 81.195312 145.183594 81.636719 Z M 317.644531 61.015625 C 315.355469 62.5625 319.769531 63.574219 320.578125 63.890625 C 341.34375 71.972656 348.015625 93.597656 338.292969 112.390625 C 331.492188 125.550781 329.5625 120.554688 328.003906 122.496094 C 325.972656 125.023438 334.589844 131.429688 342.929688 110.484375 C 348.679688 96.046875 346.414062 81.03125 335.652344 69.683594 C 333.511719 67.429688 330.667969 65.285156 327.921875 63.832031 C 326.269531 62.960938 319.132812 60.003906 317.644531 61.015625 Z M 189.449219 158.3125 C 190.402344 157.792969 193.566406 157.351562 194.707031 157.582031 C 196.125 157.867188 197.316406 159.1875 197.957031 160.378906 C 199.878906 163.941406 197.683594 166.53125 195.15625 168.628906 Z M 77.21875 227.925781 C 75.789062 210.09375 83.097656 184.828125 106.109375 196.433594 C 128.304688 207.621094 145.695312 241.402344 128.792969 260.230469 C 122.9375 266.753906 112.824219 269.550781 104.417969 267.238281 C 88.320312 262.796875 78.460938 243.488281 77.21875 227.925781 Z M 140.648438 166.222656 C 157.808594 163.644531 171.214844 179.828125 177.808594 193.601562 C 181.6875 201.707031 184.089844 211.414062 181.265625 220.21875 C 177.214844 232.867188 163.125 240 150.730469 234.496094 C 140.070312 229.765625 141.96875 226.21875 136.046875 216.757812 C 129.667969 206.574219 120.75 195.265625 123.804688 181.851562 C 125.761719 173.25 131.921875 167.53125 140.648438 166.222656 Z M 162.675781 153.035156 C 165.175781 150.09375 171.300781 145.660156 174.757812 143.855469 C 180.25 140.992188 185.492188 139.460938 191.746094 139.699219 C 202.582031 140.121094 212.777344 146.691406 216.78125 156.890625 C 220.890625 167.386719 215.695312 180.667969 205.210938 185.109375 C 203.910156 185.660156 202.261719 185.695312 202.0625 187.269531 C 201.867188 188.800781 203.101562 189.242188 203.851562 190.683594 C 206.90625 196.59375 213.488281 206.582031 215.320312 210.820312 L 201.628906 218.527344 C 200.320312 216.558594 198.203125 212.230469 197.121094 209.976562 C 193.609375 202.675781 187.246094 191.734375 183.179688 184.703125 C 175.53125 171.453125 171.703125 165.371094 162.675781 153.035156 Z M 239.980469 183.859375 C 245.492188 190.777344 252.574219 185.226562 253.226562 180.617188 C 254.332031 172.792969 247.9375 170.691406 241.648438 169.726562 C 237.777344 169.132812 226.097656 168.390625 225.289062 163.433594 C 224.257812 157.152344 222.78125 152.511719 218.601562 147.53125 C 216.679688 145.234375 215.363281 143.695312 212.835938 141.984375 C 210.519531 140.421875 212.246094 135.179688 213.097656 132.933594 C 217.242188 121.996094 231.328125 117.019531 242.824219 124.808594 C 247.3125 127.847656 249.953125 133.589844 251.246094 138.710938 C 248.949219 140.402344 245.597656 140.421875 243.367188 141.441406 C 242.363281 139.851562 242.007812 136.253906 237.277344 134.867188 C 227.652344 132.058594 221.308594 146.105469 230.871094 155.359375 C 239.988281 164.183594 254.699219 162.054688 264.617188 171.371094 C 276.0625 182.125 272.292969 195.515625 258.695312 201.648438 C 252.25 204.550781 244.667969 204.617188 238.339844 201.425781 C 233.441406 198.949219 228.367188 192.449219 228.4375 186.792969 C 232.632812 185.933594 235.933594 185.042969 239.980469 183.859375 Z M 251.714844 112.824219 C 254.15625 110.773438 273.429688 101.695312 276.417969 101.253906 C 279.632812 104.910156 286.058594 120.667969 288.210938 125.914062 C 290.394531 131.214844 298.15625 147.3125 298.960938 151.53125 C 295.761719 154.066406 289.742188 156.371094 286.558594 159.289062 C 285.289062 158.449219 271.28125 138.839844 269.152344 135.921875 C 265.75 131.273438 259.03125 122.734375 256.230469 118.445312 C 254.621094 115.988281 253.5 114.949219 251.714844 112.824219 Z M 283.957031 104.28125 L 284.039062 104.359375 C 284.03125 104.351562 283.9375 104.300781 283.957031 104.28125 Z M 276.917969 97.203125 C 268.300781 99.136719 258.101562 104.757812 250.996094 110.015625 C 248.726562 111.691406 249.117188 112.609375 250.316406 115.070312 C 251.433594 117.382812 280.570312 156.585938 283.199219 160.074219 C 284.960938 162.402344 284.363281 162.429688 287.394531 163.414062 C 292.84375 165.167969 298.734375 160.277344 303.011719 156.5 C 309.035156 151.191406 306.492188 153.980469 304.1875 147.386719 C 302.832031 143.492188 301.660156 139.679688 300.203125 135.785156 C 298.816406 132.082031 297.046875 128.332031 295.753906 124.65625 C 292.148438 114.429688 291.714844 112.542969 286.507812 102.75 C 285.640625 101.109375 283.488281 100.640625 281.828125 99.628906 C 280.46875 98.796875 278.410156 96.871094 276.917969 97.203125 Z M 297.824219 172.316406 C 300.253906 170.902344 302.304688 168.945312 304.375 167.753906 C 305.207031 170.171875 307.671875 172.875 308.296875 174.945312 L 301.753906 179.09375 Z M 304.21875 163.226562 L 296.027344 170.136719 C 292.566406 173.171875 293.492188 170.875 298.246094 179.453125 C 298.597656 180.082031 299.667969 182.3125 300.058594 182.683594 C 300.636719 183.230469 303.453125 183.699219 304.320312 183.707031 C 307.007812 183.714844 309.308594 182.285156 311.253906 180.582031 C 313.714844 178.421875 314.582031 177.011719 313.996094 173.753906 C 313.550781 171.242188 312.761719 168.308594 311.1875 166.265625 C 309.867188 164.546875 306.421875 162.082031 304.21875 163.226562 Z M 163.570312 218.5 C 162.222656 217.75 153.371094 207.085938 152.09375 205.230469 C 150.355469 202.710938 148.742188 200.378906 147.4375 197.570312 C 146.417969 195.378906 144.597656 189.617188 147.625 188.332031 C 152.902344 186.089844 157.664062 195.605469 160.132812 199.972656 C 161.886719 203.085938 167.457031 216.152344 163.570312 218.5 Z M 146.136719 181.792969 C 140.957031 182.777344 138.089844 186.757812 138.550781 191.90625 C 139.28125 200.125 150.160156 223.128906 161.324219 222.964844 C 173.792969 222.777344 167.421875 205.605469 164.285156 199.34375 C 162.207031 195.191406 160.308594 192.015625 157.394531 188.375 C 155.222656 185.660156 149.769531 181.101562 146.136719 181.792969 Z M 110.5625 249.035156 C 110.816406 248.785156 111.328125 249.363281 110.839844 249.160156 C 110.832031 249.160156 110.21875 249.371094 110.5625 249.035156 Z M 113.25 248.632812 C 111.078125 246.882812 103.449219 237.402344 101.96875 234.757812 C 99.992188 231.226562 93.5625 218.210938 100.605469 216.953125 C 102.199219 216.671875 104.808594 217.15625 106.460938 217.429688 C 109.414062 217.921875 113.292969 225.988281 114.253906 228.503906 C 115.917969 232.878906 118.421875 245.945312 113.25 248.632812 Z M 98.351562 210.035156 C 92.160156 211.253906 90.425781 214.203125 90.660156 220.398438 C 91.046875 230.820312 101.523438 254.425781 112.523438 252.503906 C 122.65625 250.734375 119.960938 233.066406 117.296875 226.460938 C 114.542969 219.648438 106.996094 208.332031 98.351562 210.035156 Z M 191.335938 153.613281 C 189.03125 153.792969 186.820312 154.652344 185.144531 156.246094 C 183.09375 158.210938 185.132812 160.199219 186.285156 161.996094 L 191.632812 169.96875 C 192.585938 171.242188 192.621094 171.992188 194.363281 171.550781 C 196.753906 170.945312 198.617188 170.671875 200.125 168.460938 C 201.527344 166.402344 201.917969 163.601562 201.410156 161.179688 C 200.492188 156.8125 195.835938 153.257812 191.335938 153.613281 Z M 255.8125 73.621094 C 251.441406 70.695312 250.300781 68.457031 243.085938 64.988281 C 237.496094 62.308594 231.378906 60.980469 225.152344 61.304688 C 215.15625 61.824219 202.941406 69.769531 200.53125 79.902344 C 198.390625 78.898438 195.625 75.730469 187.960938 72.109375 C 172.773438 64.953125 152.894531 66.367188 138.335938 75.015625 C 126.0625 82.308594 115.375 96.140625 111.5625 109.8125 C 110.109375 115.027344 108.332031 122.003906 108.550781 127.398438 C 104.027344 124.4375 102.410156 122.972656 96.769531 121.847656 C 87.335938 119.960938 78.234375 124.085938 74.03125 132.847656 C 72.269531 136.515625 71.820312 140.03125 72.117188 143.976562 C 72.21875 145.269531 72.738281 146.484375 72.863281 147.753906 C 67.84375 146.105469 57.414062 146.292969 52.089844 146.835938 C 46.484375 147.398438 39.5 149.34375 34.410156 151.777344 C 11.9375 162.507812 -0.015625 189.203125 11.210938 210.671875 C 15.679688 219.222656 27.324219 229.78125 37.429688 229.6875 C 37.1875 230.589844 34.464844 232.972656 33.65625 234.207031 C 23.777344 249.175781 34.0625 266.371094 52.257812 266.371094 C 49.582031 283.367188 57.679688 300.867188 69.34375 312.871094 C 81.210938 325.085938 98.855469 331.84375 115.84375 331.210938 C 140.308594 330.300781 165.484375 317.839844 180.097656 298.214844 C 186.140625 290.105469 187.59375 285.484375 190.222656 275.917969 C 191.207031 276.410156 191.898438 277.199219 192.808594 277.863281 C 200.355469 283.46875 209.609375 284.652344 218.550781 281.128906 C 226.609375 277.957031 234.1875 267.773438 234.203125 259.082031 C 237.691406 261.113281 238.773438 264.796875 250.453125 270.734375 C 256.757812 273.941406 265.195312 276.15625 272.222656 276.851562 C 288.753906 278.503906 302.5625 274.902344 316.332031 265.824219 C 327.910156 258.179688 335.652344 247.425781 341.148438 234.851562 C 343.949219 228.4375 346.753906 220.023438 347.25 213.0625 C 347.878906 204.359375 346.621094 198.160156 341.003906 191.480469 C 361.4375 188.425781 375 161.757812 356.277344 143.039062 C 354.167969 140.929688 351.128906 138.710938 348.535156 137.214844 C 344.859375 135.101562 342.355469 134.839844 338.742188 133.429688 C 341.269531 130.628906 341.992188 131.164062 345.878906 126.238281 C 363.515625 103.898438 357.390625 71.953125 334.625 56.632812 C 314.511719 43.105469 287.664062 43.574219 268.746094 57.660156 C 264.363281 60.921875 257.199219 68.304688 255.8125 73.621094 Z M 255.8125 73.621094 " fill-opacity="1" fill-rule="evenodd"/><path fill="#ffffff" d="M 98.351562 210.035156 C 106.996094 208.332031 114.542969 219.648438 117.296875 226.457031 C 119.960938 233.066406 122.65625 250.734375 112.523438 252.503906 C 101.523438 254.425781 91.046875 230.820312 90.660156 220.398438 C 90.425781 214.203125 92.160156 211.253906 98.351562 210.035156 Z M 251.714844 112.824219 C 253.5 114.949219 254.621094 115.988281 256.230469 118.445312 C 259.03125 122.734375 265.75 131.273438 269.152344 135.921875 C 271.28125 138.839844 285.289062 158.449219 286.558594 159.28125 C 289.742188 156.371094 295.761719 154.066406 298.960938 151.53125 C 298.160156 147.3125 290.394531 131.214844 288.210938 125.914062 C 286.058594 120.667969 279.632812 104.910156 276.417969 101.253906 C 273.429688 101.695312 254.15625 110.773438 251.714844 112.824219 Z M 297.824219 172.316406 L 301.753906 179.09375 L 308.296875 174.945312 C 307.671875 172.875 305.207031 170.171875 304.375 167.753906 C 302.304688 168.945312 300.253906 170.902344 297.824219 172.316406 Z M 239.980469 183.859375 C 235.933594 185.042969 232.632812 185.933594 228.4375 186.792969 C 228.367188 192.449219 233.441406 198.949219 238.339844 201.425781 C 244.667969 204.617188 252.25 204.550781 258.695312 201.648438 C 272.292969 195.515625 276.0625 182.125 264.617188 171.371094 C 254.699219 162.054688 239.988281 164.183594 230.871094 155.359375 C 221.308594 146.105469 227.652344 132.058594 237.277344 134.867188 C 242.007812 136.253906 242.371094 139.851562 243.367188 141.441406 C 245.597656 140.421875 248.949219 140.402344 251.246094 138.710938 C 249.953125 133.589844 247.3125 127.847656 242.824219 124.808594 C 231.328125 117.019531 217.242188 121.996094 213.097656 132.933594 C 212.246094 135.179688 210.519531 140.421875 212.835938 141.984375 C 215.363281 143.695312 216.679688 145.234375 218.601562 147.53125 C 222.78125 152.511719 224.257812 157.152344 225.289062 163.433594 C 226.097656 168.390625 237.777344 169.132812 241.648438 169.726562 C 247.9375 170.691406 254.332031 172.792969 253.226562 180.617188 C 252.574219 185.226562 245.492188 190.777344 239.980469 183.859375 Z M 191.335938 153.609375 C 195.835938 153.257812 200.492188 156.8125 201.410156 161.179688 C 201.917969 163.601562 201.527344 166.402344 200.125 168.460938 C 198.617188 170.671875 196.753906 170.945312 194.363281 171.550781 C 192.621094 171.992188 192.585938 171.242188 191.632812 169.96875 L 186.285156 161.996094 C 185.132812 160.199219 183.09375 158.210938 185.144531 156.246094 C 186.820312 154.652344 189.03125 153.792969 191.335938 153.609375 Z M 162.675781 153.035156 C 171.703125 165.363281 175.53125 171.453125 183.179688 184.703125 C 187.246094 191.734375 193.609375 202.675781 197.121094 209.976562 C 198.203125 212.230469 200.320312 216.558594 201.628906 218.527344 L 215.320312 210.820312 C 213.488281 206.582031 206.90625 196.59375 203.851562 190.683594 C 203.101562 189.242188 201.867188 188.800781 202.0625 187.269531 C 202.261719 185.695312 203.910156 185.660156 205.210938 185.109375 C 215.695312 180.667969 220.890625 167.386719 216.78125 156.890625 C 212.777344 146.691406 202.582031 140.121094 191.746094 139.699219 C 185.492188 139.460938 180.25 140.992188 174.757812 143.851562 C 171.300781 145.660156 165.175781 150.09375 162.675781 153.035156 Z M 146.136719 181.792969 C 149.769531 181.101562 155.222656 185.660156 157.394531 188.375 C 160.308594 192.015625 162.207031 195.191406 164.285156 199.34375 C 167.421875 205.605469 173.792969 222.777344 161.324219 222.964844 C 150.160156 223.128906 139.28125 200.125 138.550781 191.90625 C 138.089844 186.757812 140.957031 182.777344 146.136719 181.792969 Z M 140.648438 166.222656 C 131.921875 167.53125 125.761719 173.25 123.804688 181.851562 C 120.75 195.265625 129.667969 206.574219 136.046875 216.757812 C 141.96875 226.21875 140.070312 229.765625 150.730469 234.496094 C 163.125 240 177.214844 232.867188 181.265625 220.21875 C 184.089844 211.414062 181.6875 201.707031 177.808594 193.601562 C 171.214844 179.828125 157.808594 163.644531 140.648438 166.222656 Z M 77.21875 227.925781 C 78.460938 243.488281 88.320312 262.796875 104.417969 267.238281 C 112.824219 269.550781 122.9375 266.753906 128.792969 260.230469 C 145.695312 241.402344 128.304688 207.621094 106.109375 196.433594 C 83.097656 184.828125 75.789062 210.09375 77.21875 227.925781 Z M 77.21875 227.925781 " fill-opacity="1" fill-rule="evenodd"/></svg>