<svg xmlns="http://www.w3.org/2000/svg" xmlns:xlink="http://www.w3.org/1999/xlink" width="600" zoomAndPan="magnify" viewBox="0 0 450 599.999999" height="800" preserveAspectRatio="xMidYMid meet" version="1.0"><defs><clipPath id="333e4fd963"><path d="M 288.75 337.960938 L 292.5 337.960938 L 292.5 367.5 L 288.75 367.5 Z M 288.75 337.960938 " clip-rule="nonzero"/></clipPath><clipPath id="b49beecbb1"><path d="M 288 120 L 450 120 L 450 323.707031 L 288 323.707031 Z M 288 120 " clip-rule="nonzero"/></clipPath><clipPath id="2bc52acc39"><path d="M 114 100.03125 L 247 100.03125 L 247 254 L 114 254 Z M 114 100.03125 " clip-rule="nonzero"/></clipPath><clipPath id="e345c4e328"><path d="M 66.1875 445.171875 L 120 445.171875 L 120 499.78125 L 66.1875 499.78125 Z M 66.1875 445.171875 " clip-rule="nonzero"/></clipPath></defs><g clip-path="url(#333e4fd963)"><path fill="#e74c3c" d="M 288.75 337.960938 L 292.5 337.960938 L 292.5 367.507812 L 288.75 367.507812 Z M 288.75 337.960938 " fill-opacity="1" fill-rule="nonzero"/></g><path fill="#e74c3c" d="M 296.304688 412.675781 C 318.132812 419.144531 341.070312 406.699219 347.542969 384.875 L 348.523438 381.566406 C 354.996094 359.738281 342.546875 336.800781 320.722656 330.328125 C 298.898438 323.859375 275.957031 336.304688 269.488281 358.128906 L 268.507812 361.441406 C 262.035156 383.261719 274.480469 406.203125 296.304688 412.675781 " fill-opacity="1" fill-rule="nonzero"/><g clip-path="url(#b49beecbb1)"><path fill="#e74c3c" d="M 383.257812 126.269531 C 345.3125 115.015625 319.5625 119.867188 301.804688 133.613281 C 279.679688 150.734375 286.433594 185.792969 313.253906 193.746094 L 315.238281 194.332031 C 329.429688 198.539062 344.339844 192.625 352.671875 180.386719 C 355.253906 176.601562 358.109375 175.082031 361.710938 176.152344 C 367.917969 177.992188 369.300781 182.453125 365.863281 194.039062 C 361.691406 208.109375 355.804688 215.816406 340.996094 226.28125 C 313.894531 244.804688 298.8125 259.238281 290.464844 287.378906 L 288.378906 294.414062 C 287.230469 298.296875 289.445312 302.378906 293.332031 303.53125 L 358.296875 322.796875 C 362.183594 323.949219 366.265625 321.734375 367.417969 317.847656 C 371.21875 305.019531 377.230469 296.898438 398.921875 279.921875 C 423.171875 261.902344 436.953125 253.382812 445.910156 223.175781 C 457.445312 184.28125 446.984375 145.164062 383.257812 126.269531 " fill-opacity="1" fill-rule="nonzero"/></g><path fill="#e74c3c" d="M 176.019531 334.390625 C 193.828125 334.484375 208.335938 320.121094 208.433594 302.316406 L 208.445312 299.617188 C 208.539062 281.808594 194.179688 267.296875 176.375 267.203125 C 158.5625 267.109375 144.054688 281.46875 143.960938 299.277344 L 143.949219 301.976562 C 143.851562 319.785156 158.214844 334.296875 176.019531 334.390625 " fill-opacity="1" fill-rule="nonzero"/><g clip-path="url(#2bc52acc39)"><path fill="#e74c3c" d="M 178.765625 100.265625 C 147.808594 100.105469 129.527344 109.375 119.1875 123.578125 C 106.3125 141.273438 119.042969 166.128906 140.925781 166.242188 L 142.546875 166.25 C 154.125 166.3125 164.03125 158.609375 167.613281 147.597656 C 168.726562 144.191406 170.539062 142.425781 173.480469 142.441406 C 178.546875 142.46875 180.558594 145.515625 180.507812 154.96875 C 180.445312 166.449219 177.707031 173.523438 168.871094 184.621094 C 152.5625 204.453125 144.382812 218.59375 144.265625 241.550781 L 144.234375 247.292969 C 144.21875 250.460938 146.773438 253.042969 149.941406 253.0625 L 202.949219 253.335938 C 206.117188 253.355469 208.703125 250.800781 208.71875 247.628906 C 208.773438 237.164062 211.515625 229.75 224.097656 212.257812 C 238.375 193.425781 246.867188 184.015625 246.996094 159.371094 C 247.164062 127.632812 230.757812 100.539062 178.765625 100.265625 " fill-opacity="1" fill-rule="nonzero"/></g><g clip-path="url(#e345c4e328)"><path fill="#e74c3c" d="M 101.277344 498.785156 C 115.046875 494.480469 122.71875 479.832031 118.417969 466.0625 L 117.765625 463.976562 C 113.464844 450.207031 98.816406 442.53125 85.042969 446.832031 C 71.277344 451.136719 63.601562 465.785156 67.90625 479.554688 L 68.554688 481.640625 C 72.859375 495.410156 87.507812 503.085938 101.277344 498.785156 " fill-opacity="1" fill-rule="nonzero"/></g><path fill="#e74c3c" d="M 45.886719 317.378906 C 21.949219 324.859375 10.113281 336.507812 5.621094 350.011719 C 0.0273438 366.832031 15.964844 382.890625 32.882812 377.605469 L 34.132812 377.214844 C 43.089844 374.417969 48.84375 366.039062 48.90625 356.660156 C 48.925781 353.753906 49.894531 351.949219 52.167969 351.238281 C 56.082031 350.011719 58.382812 351.871094 60.667969 359.179688 C 63.441406 368.058594 63.066406 374.191406 58.96875 384.929688 C 51.25 404.246094 48.410156 417.167969 53.957031 434.917969 L 55.34375 439.355469 C 56.109375 441.808594 58.71875 443.175781 61.167969 442.410156 L 102.152344 429.601562 C 104.605469 428.835938 105.972656 426.230469 105.207031 423.777344 C 102.679688 415.683594 102.96875 409.289062 108.390625 392.695312 C 114.785156 374.652344 119.027344 365.304688 113.074219 346.246094 C 105.410156 321.707031 86.089844 304.820312 45.886719 317.378906 " fill-opacity="1" fill-rule="nonzero"/></svg>